<?xml version="1.0" encoding="iso-8859-1"?>
<svg xmlns="http://www.w3.org/2000/svg" xmlns:xlink="http://www.w3.org/1999/xlink" version="1.1" viewBox="0 0 342.863 342.863" enable-background="new 0 0 342.863 342.863" width="24px" height="24px">
  <g>
    <path d="M335.363,0H7.5C3.357,0,0,3.358,0,7.5v327.863c0,4.142,3.357,7.5,7.5,7.5h327.863c4.143,0,7.5-3.358,7.5-7.5V7.5   C342.863,3.358,339.506,0,335.363,0z M327.863,15v50.825H15V15H327.863z M15,327.863V80.825h312.863v247.039H15z" fill="#ee7600"/>
    <path d="m171.432,105.125c-55.07,0-99.873,44.803-99.873,99.873s44.803,99.873 99.873,99.873c55.069,0 99.872-44.803 99.872-99.873s-44.803-99.873-99.872-99.873zm0,15c36.479,0 67.651,23.135 79.627,55.502-19.556,1.549-30.734,9.191-40.713,16.023-10.729,7.345-19.995,13.689-39.584,13.689-19.588,0-28.854-6.343-39.582-13.688-9.759-6.681-20.656-14.14-39.419-15.916 11.947-32.423 43.151-55.61 79.671-55.61zm0,169.746c-46.799,0-84.873-38.074-84.873-84.873 0-4.953 0.451-9.801 1.269-14.524 16.439,0.939 25.047,6.824 34.877,13.554 11.168,7.646 23.825,16.312 48.057,16.312s36.89-8.666 48.058-16.312c10.092-6.909 18.892-12.93 36.203-13.621 0.826,4.744 1.281,9.614 1.281,14.591 0,46.799-38.074,84.873-84.872,84.873z" fill="#ee7600"/>
    <path d="m273.19,46.802h25.371c4.143,0 7.5-3.358 7.5-7.5s-3.357-7.5-7.5-7.5h-25.371c-4.143,0-7.5,3.358-7.5,7.5s3.358,7.5 7.5,7.5z" fill="#ee7600"/>
    <path d="m208.19,46.802h25.371c4.143,0 7.5-3.358 7.5-7.5s-3.357-7.5-7.5-7.5h-25.371c-4.143,0-7.5,3.358-7.5,7.5s3.358,7.5 7.5,7.5z" fill="#ee7600"/>
  </g>
</svg>
